<svg width="281.79951171875px" height="100px" xmlns="http://www.w3.org/2000/svg" viewBox="109.100244140625 14 281.79951171875 122" style="background: rgba(0, 0, 0, 0);" preserveAspectRatio="xMidYMid"><defs><filter id="editing-hole" x="-100%" y="-100%" width="300%" height="300%"><feFlood flood-color="#000000" result="black"></feFlood><feMorphology operator="dilate" radius="2" in="SourceGraphic" result="erode"></feMorphology><feGaussianBlur in="erode" stdDeviation="4" result="blur"></feGaussianBlur><feOffset in="blur" dx="2" dy="2" result="offset"></feOffset><feComposite operator="atop" in="offset" in2="black" result="merge"></feComposite><feComposite operator="in" in="merge" in2="SourceGraphic" result="inner-shadow"></feComposite></filter></defs><g filter="url(#editing-hole)"><g transform="translate(154.51057648658752, 102.52000045776367)"><path d="M14.14 0L0.51 0L7.81-38.91L8.51-42.24L22.21-42.24L14.14 0ZM40.13-3.78L40.13-3.78L40.13-3.78Q38.40 1.28 31.74 1.28L31.74 1.28L31.74 1.28Q26.82 1.28 23.42-4.61L23.42-4.61L23.42-4.61Q19.97-10.50 19.33-20.10L19.33-20.10L19.33-20.10Q26.37-32.96 31.23-38.27L31.23-38.27L31.23-38.27Q35.90-43.33 40.77-43.33L40.77-43.33L40.77-43.33Q43.39-43.33 45.28-41.92L45.28-41.92L45.28-41.92Q47.17-40.51 47.62-38.27L47.62-38.27L47.62-38.27Q45.44-37.38 44.42-36.67L44.42-36.67L44.42-36.67Q41.86-34.75 38.40-30.46L38.40-30.46L32.58-23.49L32.58-23.49Q31.17-21.82 30.59-21.06L30.59-21.06L30.59-21.06Q31.55-15.68 34.43-10.37L34.43-10.37L34.43-10.37Q37.18-5.31 40.13-3.78ZM58.82 0L44.86 0L52.99-42.24L67.07-42.24L58.82 0ZM110.02-26.56L110.02-26.56L110.02-26.56Q110.02 0.70 80.45 0.70L80.45 0.70L80.45 0.70Q75.71 0.70 67.90-0.45L67.90-0.45L75.07-38.27L75.07-38.27Q75.58-40.83 75.90-42.30L75.90-42.30L75.90-42.30Q85.63-43.01 89.95-43.01L89.95-43.01L89.95-43.01Q94.27-43.01 98.24-42.11L98.24-42.11L98.24-42.11Q102.21-41.22 104.83-39.23L104.83-39.23L104.83-39.23Q110.02-35.33 110.02-26.56ZM96.83-28.93L96.83-28.93L96.83-28.93Q96.83-38.46 89.98-38.46L89.98-38.46L89.34-38.46L89.34-38.46Q89.02-38.46 88.70-38.40L88.70-38.40L82.11-4.03L82.11-4.03Q82.37-3.90 82.62-3.90L82.62-3.90L83.14-3.90L83.14-3.90Q85.50-3.90 87.97-5.38L87.97-5.38L87.97-5.38Q90.43-6.85 92.35-9.86L92.35-9.86L92.35-9.86Q96.83-16.83 96.83-28.93ZM140.61-9.86L140.61-9.86L140.61-9.86Q141.82-8.32 141.82-5.82L141.82-5.82L141.82-5.82Q141.82-2.37 139.26-0.54L139.26-0.54L139.26-0.54Q136.70 1.28 132.67 1.28L132.67 1.28L132.67 1.28Q130.37 1.28 126.85 0.77L126.85 0.77L126.85 0.77Q119.94-0.32 117.82-0.32L117.82-0.32L117.82-0.32Q115.71-0.32 114.88-0.22L114.88-0.22L114.88-0.22Q114.05-0.13 112.70 0L112.70 0L120.58-42.24L148.16-42.24L148.16-42.24Q148.16-38.34 146.27-36.29L146.27-36.29L146.27-36.29Q144.38-34.24 140.67-34.24L140.67-34.24L140.67-34.24Q136.96-34.24 133.18-35.97L133.18-35.97L131.20-24.77L142.59-24.77L142.59-24.77Q142.59-21.38 140.93-19.49L140.93-19.49L140.93-19.49Q139.26-17.60 136.48-17.60L136.48-17.60L136.48-17.60Q133.70-17.60 131.97-18.24L131.97-18.24L131.97-18.24Q130.24-18.88 130.05-19.07L130.05-19.07L127.74-6.98L127.74-6.98Q129.28-6.78 132.16-6.78L132.16-6.78L132.16-6.78Q137.09-6.78 140.61-9.86ZM153.86 0.83L155.26-3.84L155.26-3.84Q157.50-2.62 160.83-2.62L160.83-2.62L160.83-2.62Q164.16-2.62 166.94-4.64L166.94-4.64L166.94-4.64Q169.73-6.66 171.71-10.37L171.71-10.37L171.71-10.37Q175.81-18.24 175.81-30.91L175.81-30.91L175.81-30.91Q175.81-38.98 172.16-38.98L172.16-38.98L172.16-38.98Q170.24-38.98 168.38-36.86L168.38-36.86L168.38-36.86Q166.53-34.75 165.06-31.36L165.06-31.36L165.06-31.36Q161.86-23.62 161.86-14.53L161.86-14.53L161.86-14.53Q161.86-12.67 162.75-11.55L162.75-11.55L162.75-11.55Q163.65-10.43 165.25-10.43L165.25-10.43L165.25-10.43Q164.99-8.45 163.26-7.04L163.26-7.04L163.26-7.04Q161.54-5.63 159.36-5.63L159.36-5.63L159.36-5.63Q154.18-5.63 151.52-8.86L151.52-8.86L151.52-8.86Q148.86-12.10 148.86-17.95L148.86-17.95L148.86-17.95Q148.86-23.81 150.66-28.42L150.66-28.42L150.66-28.42Q152.45-33.02 155.58-36.38L155.58-36.38L155.58-36.38Q158.72-39.74 163.04-41.66L163.04-41.66L163.04-41.66Q167.36-43.58 172.48-43.58L172.48-43.58L172.48-43.58Q189.63-43.58 189.63-26.88L189.63-26.88L189.63-26.88Q189.63-14.85 183.87-7.49L183.87-7.49L183.87-7.49Q178.11-0.06 168.13 0.83L168.13 0.83L168.13 0.83Q174.02 2.11 179.97 2.11L179.97 2.11L179.97 2.11Q184.64 2.11 188.10 0.13L188.10 0.13L188.10 0.13Q189.06-0.45 189.44-1.09L189.44-1.09L189.44-1.09Q191.36 0.64 191.36 4.06L191.36 4.06L191.36 4.06Q191.36 7.49 188.32 9.47L188.32 9.47L188.32 9.47Q185.28 11.46 179.36 11.46L179.36 11.46L179.36 11.46Q173.44 11.46 166.59 8.70L166.59 8.70L166.59 8.70Q159.74 5.95 153.86 0.83L153.86 0.83Z" fill="#fe3939"></path></g></g><style>text {
  font-size: 64px;
  font-family: Arial Black;
  dominant-baseline: central;
  text-anchor: middle;
}</style></svg>